<?xml version="1.0" encoding="UTF-8"?>
<svg version="1.1" xmlns="http://www.w3.org/2000/svg" width="384" height="123">
<path d="M0 0 C126.72 0 253.44 0 384 0 C384 40.59 384 81.18 384 123 C257.28 123 130.56 123 0 123 C0 82.41 0 41.82 0 0 Z " fill="#FDFDFD" transform="translate(0,0)"/>
<path d="M0 0 C1.093125 -0.01095703 2.18625 -0.02191406 3.3125 -0.03320312 C11.28152479 0.04004159 11.28152479 0.04004159 14.31054688 2.24267578 C16.40358882 5.11667644 16.515227 6.71388169 16.53125 10.24609375 C16.53898437 11.88481445 16.53898437 11.88481445 16.546875 13.55664062 C16.53140625 14.69294922 16.5159375 15.82925781 16.5 17 C16.51546875 18.13244141 16.5309375 19.26488281 16.546875 20.43164062 C16.52570016 24.92335267 16.3772835 28.60778872 14.71875 32.8046875 C10.13290091 35.76967613 5.33326023 35.32232605 0 35.25 C-1.093125 35.27771484 -2.18625 35.30542969 -3.3125 35.33398438 C-11.12408068 35.31005184 -11.12408068 35.31005184 -14.71875 32.2421875 C-16.51257837 27.09039993 -16.58183548 22.41819086 -16.5 17 C-16.51546875 15.97197266 -16.5309375 14.94394531 -16.546875 13.88476562 C-16.52495672 9.65727719 -16.30643963 6.32299347 -14.71875 2.3828125 C-10.15816989 -0.67067935 -5.34916785 -0.11669765 0 0 Z " fill="#0E0E0E" transform="translate(285,44.4375)"/>
<path d="M0 0 C3.3 0 6.6 0 10 0 C16.51936219 11.52164009 16.51936219 11.52164009 18 17 C18.66 17 19.32 17 20 17 C20.20625 16.236875 20.4125 15.47375 20.625 14.6875 C22.55894391 9.50101406 25.2785146 4.80966916 28 0 C31.3 0 34.6 0 38 0 C38 11.22 38 22.44 38 34 C35.03 34 32.06 34 29 34 C28.67 28.39 28.34 22.78 28 17 C26.35 20.3 24.7 23.6 23 27 C20.36 27 17.72 27 15 27 C13.35 23.7 11.7 20.4 10 17 C9.67 22.61 9.34 28.22 9 34 C6.03 34 3.06 34 0 34 C0 22.78 0 11.56 0 0 Z " fill="#62618F" transform="translate(134,45)"/>
<path d="M0 0 C2.97 0 5.94 0 9 0 C9.33 8.58 9.66 17.16 10 26 C13.63 26 17.26 26 21 26 C21.33 17.42 21.66 8.84 22 0 C24.97 0 27.94 0 31 0 C31.09907258 4.19915307 31.17156173 8.39768252 31.21972656 12.59765625 C31.23980982 14.02551121 31.26708252 15.45328425 31.30175781 16.88085938 C31.35042669 18.93640368 31.37299967 20.99085855 31.390625 23.046875 C31.41157227 24.28276367 31.43251953 25.51865234 31.45410156 26.79199219 C31 30 31 30 29.30786133 32.40356445 C26.53215647 34.32362518 25.03624172 34.50282069 21.68359375 34.49609375 C20.67232422 34.49673828 19.66105469 34.49738281 18.61914062 34.49804688 C17.56919922 34.47806641 16.51925781 34.45808594 15.4375 34.4375 C14.38369141 34.44458984 13.32988281 34.45167969 12.24414062 34.45898438 C4.51926166 34.39489795 4.51926166 34.39489795 2.23852539 32.66040039 C-0.37200809 29.16064912 -0.11665598 25.78097113 -0.09765625 21.58203125 C-0.09443359 20.32841797 -0.09121094 19.07480469 -0.08789062 17.78320312 C-0.07951172 16.47287109 -0.07113281 15.16253906 -0.0625 13.8125 C-0.05748317 12.47721519 -0.05292059 11.14192859 -0.04882812 9.80664062 C-0.03702695 6.53771527 -0.02056297 3.26888009 0 0 Z " fill="#0D0D0D" transform="translate(305,45)"/>
<path d="M0 0 C3.3 0 6.6 0 10 0 C12.88519979 6.74064375 15.6380042 13.52428098 18.25 20.375 C18.50797363 21.04015625 18.76594727 21.7053125 19.03173828 22.390625 C20.48558157 26.24432537 21.4689094 29.91566035 22 34 C19.03 34 16.06 34 13 34 C12.67 32.02 12.34 30.04 12 28 C5.565 28.495 5.565 28.495 -1 29 C-1.99 31.475 -1.99 31.475 -3 34 C-5.97 34 -8.94 34 -12 34 C-10.79573383 29.18293532 -9.24912645 24.52357015 -7.6875 19.8125 C-7.24374023 18.4502832 -7.24374023 18.4502832 -6.79101562 17.06054688 C-4.8472037 11.19552472 -2.5949455 5.60806102 0 0 Z " fill="#484594" transform="translate(109,45)"/>
<path d="M0 0 C0.9796875 0.01289062 1.959375 0.02578125 2.96875 0.0390625 C3.98453125 0.07257812 5.0003125 0.10609375 6.046875 0.140625 C7.078125 0.15867188 8.109375 0.17671875 9.171875 0.1953125 C11.71448564 0.24239788 14.25520662 0.3081445 16.796875 0.390625 C16.796875 2.700625 16.796875 5.010625 16.796875 7.390625 C8.381875 7.885625 8.381875 7.885625 -0.203125 8.390625 C-0.203125 14.660625 -0.203125 20.930625 -0.203125 27.390625 C3.756875 27.720625 7.716875 28.050625 11.796875 28.390625 C11.796875 25.750625 11.796875 23.110625 11.796875 20.390625 C9.816875 20.390625 7.836875 20.390625 5.796875 20.390625 C5.796875 18.740625 5.796875 17.090625 5.796875 15.390625 C10.416875 15.390625 15.036875 15.390625 19.796875 15.390625 C19.796875 21.660625 19.796875 27.930625 19.796875 34.390625 C15.52537454 34.49823453 11.25656502 34.57776566 6.984375 34.640625 C5.76943359 34.67414063 4.55449219 34.70765625 3.30273438 34.7421875 C2.13935547 34.75507812 0.97597656 34.76796875 -0.22265625 34.78125 C-1.29620361 34.80219727 -2.36975098 34.82314453 -3.47583008 34.84472656 C-6.203125 34.390625 -6.203125 34.390625 -8.04980469 32.73730469 C-10.38425251 27.98736555 -9.67156552 22.57738074 -9.640625 17.390625 C-9.66060547 16.20210937 -9.68058594 15.01359375 -9.70117188 13.7890625 C-9.70052734 12.64695312 -9.69988281 11.50484375 -9.69921875 10.328125 C-9.70107178 9.28527344 -9.7029248 8.24242187 -9.70483398 7.16796875 C-8.68526347 1.52386455 -5.42808227 -0.12623447 0 0 Z " fill="#292694" transform="translate(75.203125,44.609375)"/>
<path d="M0 0 C8.91 0 17.82 0 27 0 C27 2.31 27 4.62 27 7 C21.06 7 15.12 7 9 7 C9 9.31 9 11.62 9 14 C13.62 14 18.24 14 23 14 C23 15.98 23 17.96 23 20 C18.38 20 13.76 20 9 20 C9 22.31 9 24.62 9 27 C14.94 27 20.88 27 27 27 C27 29.31 27 31.62 27 34 C18.09 34 9.18 34 0 34 C0 22.78 0 11.56 0 0 Z " fill="#6F6E8C" transform="translate(177,45)"/>
<path d="M0 0 C1.37478516 0.01740234 1.37478516 0.01740234 2.77734375 0.03515625 C3.69644531 0.04417969 4.61554688 0.05320313 5.5625 0.0625 C6.27277344 0.07410156 6.98304688 0.08570313 7.71484375 0.09765625 C6.25008564 4.08709793 4.33758962 7.5821005 2.15234375 11.22265625 C0.36171314 14.20828151 -1.18398597 16.79414542 -2.28515625 20.09765625 C0.02484375 20.09765625 2.33484375 20.09765625 4.71484375 20.09765625 C4.71484375 17.78765625 4.71484375 15.47765625 4.71484375 13.09765625 C7.68484375 13.09765625 10.65484375 13.09765625 13.71484375 13.09765625 C13.71484375 15.40765625 13.71484375 17.71765625 13.71484375 20.09765625 C14.70484375 20.09765625 15.69484375 20.09765625 16.71484375 20.09765625 C16.71484375 22.40765625 16.71484375 24.71765625 16.71484375 27.09765625 C15.72484375 27.09765625 14.73484375 27.09765625 13.71484375 27.09765625 C13.71484375 29.40765625 13.71484375 31.71765625 13.71484375 34.09765625 C10.41484375 34.09765625 7.11484375 34.09765625 3.71484375 34.09765625 C3.71484375 31.78765625 3.71484375 29.47765625 3.71484375 27.09765625 C-1.89515625 27.09765625 -7.50515625 27.09765625 -13.28515625 27.09765625 C-13.28515625 18.09628933 -13.28515625 18.09628933 -11.1328125 14.4140625 C-10.68615234 13.63224609 -10.23949219 12.85042969 -9.77929688 12.04492188 C-9.30685547 11.25794922 -8.83441406 10.47097656 -8.34765625 9.66015625 C-7.87908203 8.84611328 -7.41050781 8.03207031 -6.92773438 7.19335938 C-2.82816315 0.12086167 -2.82816315 0.12086167 0 0 Z " fill="#131313" transform="translate(219.28515625,44.90234375)"/>
<path d="M0 0 C2.97 0 5.94 0 9 0 C11.31 4.29 13.62 8.58 16 13 C18.20132619 10.06489842 19.95504171 7.4339774 21.6875 4.25 C22.12449219 3.45078125 22.56148438 2.6515625 23.01171875 1.828125 C23.33785156 1.22484375 23.66398437 0.6215625 24 0 C26.97 0 29.94 0 33 0 C32.16412441 3.34350236 31.42017662 5.26938972 29.75 8.16015625 C22.79639774 20.30086035 22.79639774 20.30086035 21 34 C18.03 34 15.06 34 12 34 C12 30.37 12 26.74 12 23 C11.34 23 10.68 23 10 23 C5.14141061 13.45565642 5.14141061 13.45565642 3.3125 9.0625 C2.07131829 5.90971408 2.07131829 5.90971408 0 3 C0 2.01 0 1.02 0 0 Z " fill="#131313" transform="translate(236,45)"/>
<path d="M0 0 C9 0 9 0 11.5 2.3125 C13.48292132 7.18718158 13.81409398 11.77604081 14 17 C13.67 16.34 13.34 15.68 13 15 C11.02 14.34 9.04 13.68 7 13 C7 19.27 7 25.54 7 32 C4.69 32 2.38 32 0 32 C0 21.44 0 10.88 0 0 Z " fill="#4B498C" transform="translate(135,46)"/>
<path d="M0 0 C1.79244141 0.01740234 1.79244141 0.01740234 3.62109375 0.03515625 C5.41740234 0.04869141 5.41740234 0.04869141 7.25 0.0625 C8.17683594 0.07410156 9.10367187 0.08570313 10.05859375 0.09765625 C10.08747889 3.24347048 10.10535298 6.38925094 10.12109375 9.53515625 C10.12947266 10.43298828 10.13785156 11.33082031 10.14648438 12.25585938 C10.14970703 13.10986328 10.15292969 13.96386719 10.15625 14.84375 C10.16148682 15.63450928 10.16672363 16.42526855 10.17211914 17.23999023 C10.05859375 19.09765625 10.05859375 19.09765625 9.05859375 20.09765625 C7.06059803 20.19639441 5.05902217 20.22737424 3.05859375 20.22265625 C1.96546875 20.22523437 0.87234375 20.2278125 -0.25390625 20.23046875 C-2.94140625 20.09765625 -2.94140625 20.09765625 -3.94140625 19.09765625 C-4.03977835 17.76722 -4.07219217 16.43172281 -4.07421875 15.09765625 C-4.07550781 14.29328125 -4.07679688 13.48890625 -4.078125 12.66015625 C-4.07425781 11.81453125 -4.07039063 10.96890625 -4.06640625 10.09765625 C-4.07027344 9.25203125 -4.07414062 8.40640625 -4.078125 7.53515625 C-4.07683594 6.73078125 -4.07554687 5.92640625 -4.07421875 5.09765625 C-4.07309082 4.35515625 -4.07196289 3.61265625 -4.07080078 2.84765625 C-3.84460834 -0.21148976 -3.10045453 0.10293674 0 0 Z " fill="#F1F1F1" transform="translate(281.94140625,51.90234375)"/>
<path d="M0 0 C3.3 0 6.6 0 10 0 C10 0.33 10 0.66 10 1 C7.03 1 4.06 1 1 1 C1 11.56 1 22.12 1 33 C3.31 33 5.62 33 8 33 C8 26.73 8 20.46 8 14 C9.98 14.66 11.96 15.32 14 16 C14 13.69 14 11.38 14 9 C16.50298434 11.93828597 17.46930939 14.17902761 18 18 C19.65 18.33 21.3 18.66 23 19 C24.125 24.75 24.125 24.75 23 27 C20.36 27 17.72 27 15 27 C13.35 23.7 11.7 20.4 10 17 C9.67 22.61 9.34 28.22 9 34 C6.03 34 3.06 34 0 34 C0 22.78 0 11.56 0 0 Z " fill="#6D6C9C" transform="translate(134,45)"/>
<path d="M0 0 C4.62 0 9.24 0 14 0 C14 6.27 14 12.54 14 19 C5.42 19 -3.16 19 -12 19 C-12.33 18.34 -12.66 17.68 -13 17 C-12.40461426 17.00523682 -11.80922852 17.01047363 -11.19580078 17.01586914 C-8.50554453 17.03661999 -5.81530511 17.04965407 -3.125 17.0625 C-2.18785156 17.07087891 -1.25070313 17.07925781 -0.28515625 17.08789062 C0.61074219 17.09111328 1.50664063 17.09433594 2.4296875 17.09765625 C3.25710449 17.10289307 4.08452148 17.10812988 4.93701172 17.11352539 C7.06411757 17.13352138 7.06411757 17.13352138 9 16 C8.505 15.484375 8.01 14.96875 7.5 14.4375 C5.50350759 11.19319983 5.78435615 8.73782666 6 5 C4.02 5 2.04 5 0 5 C0 3.35 0 1.7 0 0 Z " fill="#3C3A94" transform="translate(81,60)"/>
<path d="M0 0 C0.91644287 0.00523682 1.83288574 0.01047363 2.77709961 0.01586914 C3.76645508 0.0190918 4.75581055 0.02231445 5.77514648 0.02563477 C6.81606445 0.03401367 7.85698242 0.04239258 8.92944336 0.05102539 C10.49662109 0.05779297 10.49662109 0.05779297 12.09545898 0.06469727 C14.68600996 0.07652627 17.27644895 0.0930085 19.86694336 0.11352539 C19.86694336 2.42352539 19.86694336 4.73352539 19.86694336 7.11352539 C13.92694336 7.44352539 7.98694336 7.77352539 1.86694336 8.11352539 C0.86694336 4.11352539 0.86694336 4.11352539 0.86694336 2.11352539 C-0.45305664 1.78352539 -1.77305664 1.45352539 -3.13305664 1.11352539 C-2.13305664 0.11352539 -2.13305664 0.11352539 0 0 Z " fill="#413E99" transform="translate(72.133056640625,44.886474609375)"/>
<path d="M0 0 C0.66 0 1.32 0 2 0 C2.50615298 1.26839526 3.00469099 2.53983102 3.5 3.8125 C3.91765625 4.87404297 3.91765625 4.87404297 4.34375 5.95703125 C5 8 5 8 5 11 C2.36 11 -0.28 11 -3 11 C-2.01 7.37 -1.02 3.74 0 0 Z " fill="#D1D0ED" transform="translate(113,56)"/>
<path d="M0 0 C1.51400391 0.01740234 1.51400391 0.01740234 3.05859375 0.03515625 C4.07050781 0.04417969 5.08242187 0.05320312 6.125 0.0625 C7.29869141 0.07990234 7.29869141 0.07990234 8.49609375 0.09765625 C7.83609375 1.41765625 7.17609375 2.73765625 6.49609375 4.09765625 C7.81609375 4.42765625 9.13609375 4.75765625 10.49609375 5.09765625 C6.53609375 5.09765625 2.57609375 5.09765625 -1.50390625 5.09765625 C-1.50390625 5.75765625 -1.50390625 6.41765625 -1.50390625 7.09765625 C-2.16390625 7.09765625 -2.82390625 7.09765625 -3.50390625 7.09765625 C-3.54644981 5.09810879 -3.54471408 3.09723989 -3.50390625 1.09765625 C-2.50390625 0.09765625 -2.50390625 0.09765625 0 0 Z " fill="#3B388D" transform="translate(109.50390625,66.90234375)"/>
<path d="M0 0 C3.0390625 -0.29296875 3.0390625 -0.29296875 6.625 -0.1875 C7.81351563 -0.16042969 9.00203125 -0.13335937 10.2265625 -0.10546875 C11.14179688 -0.07066406 12.05703125 -0.03585938 13 0 C13 0.33 13 0.66 13 1 C10.03 1 7.06 1 4 1 C4 3.31 4 5.62 4 8 C1.69 8 -0.62 8 -3 8 C-2.45276317 4.62537285 -1.9451 2.91765 0 0 Z " fill="#D6D6D6" transform="translate(220,57)"/>
<path d="M0 0 C0.66 0 1.32 0 2 0 C2 3.63 2 7.26 2 11 C2.99 10.67 3.98 10.34 5 10 C4.01 12.97 3.02 15.94 2 19 C1.34 18.67 0.68 18.34 0 18 C0 12.06 0 6.12 0 0 Z " fill="#D4D4F3" transform="translate(95,60)"/>
<path d="M0 0 C0.33 0 0.66 0 1 0 C1 11.22 1 22.44 1 34 C0.01 34 -0.98 34 -2 34 C-2 32.68 -2 31.36 -2 30 C-1.34 30 -0.68 30 0 30 C0 20.1 0 10.2 0 0 Z " fill="#F2F3FD" transform="translate(133,45)"/>
<path d="M0 0 C2.8290723 2.8290723 3.37611108 3.38144425 4 7 C3.01 6.67 2.02 6.34 1 6 C1 9.96 1 13.92 1 18 C0.67 18 0.34 18 0 18 C0 12.06 0 6.12 0 0 Z " fill="#DADAF5" transform="translate(143,61)"/>
<path d="M0 0 C2.97 0 5.94 0 9 0 C9 0.99 9 1.98 9 3 C5.7 3 2.4 3 -1 3 C-0.67 2.01 -0.34 1.02 0 0 Z " fill="#2C2795" transform="translate(82,47)"/>
<path d="M0 0 C5.75 1.875 5.75 1.875 8 3 C7.67 4.32 7.34 5.64 7 7 C4.13302508 5.71480435 2.02392288 4.42870746 0 2 C0 1.34 0 0.68 0 0 Z " fill="#545391" transform="translate(142,59)"/>
</svg>
